<?xml version="1.0" encoding="UTF-8"?>
<svg version="1.1" xmlns="http://www.w3.org/2000/svg" width="5000" height="5000">
<path d="M0 0 C11.94375838 -0.09508197 23.88105082 -0.18797237 35.8125 0.4375 C36.97422729 0.49635376 36.97422729 0.49635376 38.15942383 0.55639648 C41.53733033 0.75415907 44.75829574 0.98749919 48 2 C48 2.99 48 3.98 48 5 C39.75 5 31.5 5 23 5 C23.33 5.66 23.66 6.32 24 7 C21.36 7 18.72 7 16 7 C15.67 6.01 15.34 5.02 15 4 C7.575 3.01 7.575 3.01 0 2 C0 1.34 0 0.68 0 0 Z " fill="#0257B3" transform="translate(2136,1428)"/>
</svg>
